<svg width="490" height="490" xmlns="http://www.w3.org/2000/svg" xml:space="preserve" version="1.1">

 <g>
  <title>Layer 1</title>
  <g id="svg_1">
   <path id="svg_2" d="m116.205,139.429c-15.151,0 -27.433,-12.282 -27.433,-27.433s12.282,-27.433 27.433,-27.433c9.25,0 17.425,4.583 22.394,11.598l13.018,-13.018c-8.377,-10.269 -21.126,-16.83 -35.412,-16.83c-25.229,0 -45.682,20.453 -45.682,45.682c0,25.229 20.453,45.682 45.682,45.682c14.518,0 27.444,-6.781 35.812,-17.338l-13.041,-13.041c-4.927,7.318 -13.286,12.131 -22.771,12.131z"/>
   <path id="svg_3" d="m0,223.033l222.983,0l0,-222.982l-222.983,0l0,222.982zm20.851,-202.131l181.281,0l0,181.28l-181.281,0l0,-181.28z"/>
   <path id="svg_4" d="m267.017,0.051l0,222.982l222.983,0l0,-222.982l-222.983,0zm202.132,202.131l-181.281,0l0,-181.28l181.281,0l0,181.28z"/>
   <path id="svg_5" d="m0,489.949l222.983,0l0,-222.984l-222.983,0l0,222.984zm20.851,-202.133l181.281,0l0,181.281l-181.281,0l0,-181.281z"/>
   <path id="svg_6" d="m267.017,489.949l222.983,0l0,-222.984l-222.983,0l0,222.984zm20.851,-202.133l181.281,0l0,181.281l-181.281,0l0,-181.281z"/>
   <polygon id="svg_7" points="349.109,100.223 372.628,148.013 384.265,148.013 407.906,100.223 407.906,155.268 427.423,155.268    427.423,67.816 401.156,67.816 378.503,115.861 355.992,67.816 329.593,67.816 329.593,155.268 349.109,155.268  "/>
   <polygon id="svg_8" points="111.492,367.261 92.606,334.732 71.46,334.732 101.739,387.655 101.739,422.184 121.246,422.184 121.246,387.655    151.525,334.732 130.379,334.732  "/>
   <path id="svg_9" d="m392.71,334.732l-33.027,35.909l0,-35.909l-19.518,0l0,87.452l19.518,0l0,-24.771l8.755,-9.758l25.647,34.529l22.765,0c-4.001,-5.585 -10.049,-14.076 -18.133,-25.458c-8.093,-11.388 -13.643,-19.161 -16.646,-23.335l34.78,-38.658l-24.141,0l0,-0.001z"/>
  </g>
  <g id="svg_10"/>
  <g id="svg_11"/>
  <g id="svg_12"/>
  <g id="svg_13"/>
  <g id="svg_14"/>
  <g id="svg_15"/>
  <g id="svg_16"/>
  <g id="svg_17"/>
  <g id="svg_18"/>
  <g id="svg_19"/>
  <g id="svg_20"/>
  <g id="svg_21"/>
  <g id="svg_22"/>
  <g id="svg_23"/>
  <g id="svg_24"/>
  <rect stroke="#000" id="svg_25" height="182" width="182" y="21" x="21" fill="#c9b559"/>
  <text font-weight="bold" xml:space="preserve" text-anchor="start" font-family="'Manrope'" font-size="130" stroke-width="0" id="svg_27" y="158" x="64" stroke="#000" fill="#ffffff">C</text>
  <rect stroke="#000" id="svg_28" height="182" width="182" y="20" x="288" fill="#797d80"/>
  <text font-weight="bold" xml:space="preserve" text-anchor="start" font-family="'Raleway'" font-size="130" stroke-width="0" id="svg_29" y="158" x="337" stroke="#000" fill="#ffffff">A</text>
  <rect stroke="#000" id="svg_30" height="182" width="182" y="287" x="288" fill="#c9b559"/>
  <text font-weight="bold" xml:space="preserve" text-anchor="start" font-family="'Raleway'" font-size="130" stroke-width="0" id="svg_31" y="423" x="337" stroke="#000" fill="#ffffff">E</text>
  <rect stroke="#000" id="svg_32" height="182" width="182" y="287" x="20" fill="#6cab65"/>
  <text font-weight="bold" xml:space="preserve" text-anchor="start" font-family="'Raleway'" font-size="130" stroke-width="0" id="svg_33" y="424" x="68" stroke="#000" fill="#ffffff">Y</text>
 </g>
</svg>